<svg width="149" height="48" viewBox="0 0 149 48" fill="none" xmlns="http://www.w3.org/2000/svg">
<path d="M139 20H119V28H139V20ZM133 6H119V14H133V6ZM145 34H119V42H145V34Z" stroke="white" stroke-width="4" stroke-linejoin="round"/>
<path d="M118 12C119.105 12 120 11.1046 120 10C120 8.89543 119.105 8 118 8V12ZM106 8C104.895 8 104 8.89543 104 10C104 11.1046 104.895 12 106 12V8ZM118 26C119.105 26 120 25.1046 120 24C120 22.8954 119.105 22 118 22V26ZM106 22C104.895 22 104 22.8954 104 24C104 25.1046 104.895 26 106 26V22ZM118 40C119.105 40 120 39.1046 120 38C120 36.8954 119.105 36 118 36V40ZM106 36C104.895 36 104 36.8954 104 38C104 39.1046 104.895 40 106 40V36ZM104 44C104 45.1046 104.895 46 106 46C107.105 46 108 45.1046 108 44H104ZM108 4V2H104V4H108ZM118 8H106V12H118V8ZM118 22H106V26H118V22ZM118 36H106V40H118V36ZM108 44V4H104V44H108Z" fill="white"/>
<path d="M16.96 35H12.32V34.008C11.5093 34.5627 10.6453 34.9467 9.728 35.16C8.832 35.3733 7.904 35.48 6.944 35.48C6.048 35.48 5.23733 35.3413 4.512 35.064C3.78667 34.808 3.15733 34.4347 2.624 33.944C2.09067 33.432 1.67467 32.8347 1.376 32.152C1.09867 31.4693 0.96 30.712 0.96 29.88C0.96 28.8347 1.184 27.928 1.632 27.16C2.10133 26.3707 2.73067 25.72 3.52 25.208C4.30933 24.6747 5.22667 24.28 6.272 24.024C7.33867 23.768 8.48 23.64 9.696 23.64H12.352C12.352 22.552 12 21.688 11.296 21.048C10.592 20.408 9.57867 20.088 8.256 20.088C7.616 20.088 6.95467 20.2053 6.272 20.44C5.58933 20.6747 4.90667 21.1013 4.224 21.72L1.504 18.968C2.48533 18.0293 3.616 17.304 4.896 16.792C6.19733 16.28 7.53067 16.024 8.896 16.024C10.176 16.024 11.3173 16.2267 12.32 16.632C13.3227 17.0373 14.1333 17.56 14.752 18.2C15.5627 19.0107 16.128 19.9173 16.448 20.92C16.7893 21.9227 16.96 23.2027 16.96 24.76V35ZM12.32 30.392V26.968H10.208C9.568 26.968 8.96 27.0107 8.384 27.096C7.82933 27.1813 7.33867 27.3307 6.912 27.544C6.50667 27.736 6.176 27.992 5.92 28.312C5.68533 28.632 5.568 29.016 5.568 29.464C5.568 30.104 5.81333 30.6267 6.304 31.032C6.816 31.4373 7.46667 31.64 8.256 31.64C8.93867 31.64 9.61067 31.5333 10.272 31.32C10.9547 31.1067 11.6373 30.7973 12.32 30.392ZM37.3145 35H32.7065V23.96C32.7065 23.2987 32.5998 22.7227 32.3865 22.232C32.1945 21.72 31.9278 21.304 31.5865 20.984C31.2452 20.6427 30.8505 20.3973 30.4025 20.248C29.9758 20.0773 29.5278 19.992 29.0585 19.992C28.3545 19.992 27.6612 20.12 26.9785 20.376C26.2958 20.6107 25.6772 20.9947 25.1225 21.528V35H20.4825V16.504H25.1225V17.88C25.3998 17.6027 25.7412 17.3467 26.1465 17.112C26.5518 16.8773 26.9678 16.6853 27.3945 16.536C27.8425 16.3653 28.2905 16.2373 28.7385 16.152C29.2078 16.0667 29.6558 16.024 30.0825 16.024C31.0212 16.024 31.9172 16.1733 32.7705 16.472C33.6452 16.7707 34.4132 17.2293 35.0745 17.848C35.7572 18.4667 36.3012 19.2667 36.7065 20.248C37.1118 21.2293 37.3145 22.392 37.3145 23.736V35ZM45.6263 13.272H40.8263V8.472H45.6263V13.272ZM45.5623 35H40.8903V16.472H45.5623V35ZM57.603 34.904C57.2403 35.0747 56.8243 35.2133 56.355 35.32C55.907 35.4267 55.4377 35.48 54.947 35.48C54.2643 35.48 53.603 35.384 52.963 35.192C52.3443 35.0213 51.8003 34.7333 51.331 34.328C50.8617 33.9227 50.4883 33.4 50.211 32.76C49.9337 32.0987 49.795 31.3093 49.795 30.392V8.44H54.499V29.592C54.499 30.36 54.6483 30.8933 54.947 31.192C55.267 31.4693 55.6403 31.608 56.067 31.608C56.6003 31.608 57.1123 31.448 57.603 31.128V34.904ZM64.6575 13.272H59.8575V8.472H64.6575V13.272ZM64.5935 35H59.9215V16.472H64.5935V35ZM82.3623 29.816C82.3623 30.7333 82.1489 31.5547 81.7223 32.28C81.2956 32.984 80.7409 33.5813 80.0583 34.072C79.3756 34.5413 78.6076 34.8933 77.7543 35.128C76.9009 35.384 76.0583 35.512 75.2263 35.512C73.8183 35.512 72.5169 35.256 71.3223 34.744C70.1489 34.2107 69.1143 33.368 68.2183 32.216L71.0023 29.4C71.5569 30.104 72.1969 30.6587 72.9223 31.064C73.6476 31.448 74.4263 31.64 75.2583 31.64C75.9836 31.64 76.5809 31.512 77.0503 31.256C77.5409 30.9787 77.7863 30.5733 77.7863 30.04C77.7863 29.4853 77.4449 29.0267 76.7623 28.664C76.0796 28.28 75.1196 27.9067 73.8823 27.544C73.1569 27.3307 72.4529 27.064 71.7703 26.744C71.0876 26.4027 70.4796 25.9973 69.9463 25.528C69.4129 25.0373 68.9863 24.4827 68.6663 23.864C68.3463 23.2453 68.1863 22.5307 68.1863 21.72C68.1863 20.824 68.3889 20.024 68.7943 19.32C69.2209 18.5947 69.7649 17.9973 70.4263 17.528C71.1089 17.0373 71.8769 16.664 72.7303 16.408C73.5836 16.152 74.4476 16.024 75.3223 16.024C78.1383 16.024 80.4423 17.0907 82.2343 19.224L79.4823 22.008C78.9489 21.3467 78.3409 20.824 77.6583 20.44C76.9756 20.056 76.2289 19.864 75.4183 19.864C75.1409 19.864 74.8423 19.9067 74.5223 19.992C74.2236 20.056 73.9356 20.1627 73.6583 20.312C73.4023 20.44 73.1889 20.6213 73.0183 20.856C72.8476 21.0693 72.7623 21.3147 72.7623 21.592C72.7623 22.0827 73.0823 22.5093 73.7223 22.872C74.3836 23.2347 75.3223 23.5973 76.5383 23.96C77.3276 24.1947 78.0743 24.4933 78.7783 24.856C79.4823 25.2187 80.1009 25.6453 80.6343 26.136C81.1676 26.6053 81.5836 27.1493 81.8823 27.768C82.2023 28.3653 82.3623 29.048 82.3623 29.816ZM95.5365 34.584C95.0672 34.8827 94.5232 35.1067 93.9045 35.256C93.2858 35.4053 92.6672 35.48 92.0485 35.48C90.9605 35.48 90.0432 35.3413 89.2965 35.064C88.5498 34.808 87.9525 34.4027 87.5045 33.848C87.0565 33.2933 86.7258 32.5893 86.5125 31.736C86.3205 30.8827 86.2245 29.88 86.2245 28.728V20.632H83.7925V18.552C85.2858 17.9333 86.4912 17.016 87.4085 15.8C88.3472 14.584 88.9872 13.0053 89.3285 11.064H90.8325V16.472H95.5045V20.632H90.8325V29.048C90.8325 29.5173 90.8858 29.9013 90.9925 30.2C91.1205 30.4987 91.2805 30.7333 91.4725 30.904C91.6645 31.0747 91.8778 31.192 92.1125 31.256C92.3685 31.32 92.6352 31.352 92.9125 31.352C93.2752 31.352 93.7125 31.288 94.2245 31.16C94.7365 31.032 95.1738 30.8187 95.5365 30.52V34.584Z" fill="white"/>
</svg>
