<svg width="345" height="112" viewBox="0 0 345 112" fill="none" xmlns="http://www.w3.org/2000/svg">
<path d="M321.846 46.75H275.537V65.25H321.846V46.75ZM307.953 14.375H275.537V32.875H307.953V14.375ZM335.738 79.125H275.537V97.625H335.738V79.125Z" stroke="#15141F" stroke-width="4" stroke-linejoin="round"/>
<path d="M273.222 28.25C275.78 28.25 277.852 26.1794 277.852 23.625C277.852 21.0707 275.78 19 273.222 19V28.25ZM245.436 19C242.878 19 240.805 21.0707 240.805 23.625C240.805 26.1794 242.878 28.25 245.436 28.25V19ZM273.222 60.625C275.78 60.625 277.852 58.5544 277.852 56C277.852 53.4456 275.78 51.375 273.222 51.375V60.625ZM245.436 51.375C242.878 51.375 240.805 53.4456 240.805 56C240.805 58.5544 242.878 60.625 245.436 60.625V51.375ZM273.222 93C275.78 93 277.852 90.9294 277.852 88.375C277.852 85.8206 275.78 83.75 273.222 83.75V93ZM245.436 83.75C242.878 83.75 240.805 85.8206 240.805 88.375C240.805 90.9294 242.878 93 245.436 93V83.75ZM240.805 102.25C240.805 104.804 242.878 106.875 245.436 106.875C247.995 106.875 250.067 104.804 250.067 102.25H240.805ZM250.067 9.75V5.125H240.805V9.75H250.067ZM273.222 19H245.436V28.25H273.222V19ZM273.222 51.375H245.436V60.625H273.222V51.375ZM273.222 83.75H245.436V93H273.222V83.75ZM250.067 102.25V9.75H240.805V102.25H250.067Z" fill="#15141F"/>
<path d="M39.2699 81.4375H28.5263V79.1435C26.6491 80.4262 24.6486 81.3142 22.5246 81.8075C20.45 82.3007 18.3013 82.5475 16.0785 82.5475C14.0038 82.5475 12.1268 82.2267 10.4473 81.5855C8.76787 80.9935 7.31068 80.1302 6.07579 78.9955C4.84089 77.8115 3.87767 76.4302 3.18612 74.8515C2.54398 73.2727 2.2229 71.5215 2.2229 69.5975C2.2229 67.1802 2.74156 65.0835 3.77887 63.3075C4.86558 61.4822 6.32277 59.9775 8.15042 58.7935C9.97806 57.5602 12.1021 56.6475 14.5225 56.0555C16.9923 55.4635 19.635 55.1675 22.4506 55.1675H28.6003C28.6003 52.6515 27.7853 50.6535 26.1552 49.1735C24.5252 47.6935 22.1789 46.9535 19.1163 46.9535C17.6344 46.9535 16.1032 47.2247 14.5225 47.7675C12.9418 48.3102 11.3612 49.2967 9.78048 50.7275L3.4825 44.3635C5.7547 42.1927 8.3727 40.5155 11.3365 39.3315C14.3496 38.1475 17.4369 37.5555 20.5982 37.5555C23.562 37.5555 26.2046 38.0242 28.5263 38.9615C30.8479 39.8987 32.7248 41.1075 34.1574 42.5875C36.0345 44.4622 37.3434 46.5587 38.0844 48.8775C38.8746 51.1962 39.2699 54.1562 39.2699 57.7575V81.4375ZM28.5263 70.7815V62.8635H23.6361C22.1542 62.8635 20.7464 62.9622 19.4127 63.1595C18.1284 63.3567 16.9923 63.7022 16.0044 64.1955C15.0659 64.6395 14.3002 65.2315 13.7075 65.9715C13.1641 66.7115 12.8924 67.5995 12.8924 68.6355C12.8924 70.1155 13.4605 71.3242 14.5966 72.2615C15.7821 73.1987 17.2887 73.6675 19.1163 73.6675C20.697 73.6675 22.253 73.4207 23.7842 72.9275C25.365 72.4342 26.9455 71.7187 28.5263 70.7815ZM86.3994 81.4375H75.7299V55.9075C75.7299 54.3782 75.4828 53.0462 74.989 51.9115C74.5444 50.7275 73.9269 49.7655 73.1366 49.0255C72.3463 48.2362 71.4324 47.6687 70.3951 47.3235C69.4071 46.9287 68.3698 46.7315 67.2832 46.7315C65.6531 46.7315 64.0478 47.0275 62.4671 47.6195C60.8863 48.1622 59.454 49.0502 58.1696 50.2835V81.4375H47.426V38.6655H58.1696V41.8475C58.8117 41.2062 59.6022 40.6142 60.5406 40.0715C61.4791 39.5287 62.4423 39.0847 63.4303 38.7395C64.4676 38.3447 65.5049 38.0487 66.5422 37.8515C67.6289 37.6542 68.6662 37.5555 69.6542 37.5555C71.8277 37.5555 73.9023 37.9007 75.8781 38.5915C77.9034 39.2822 79.6817 40.3427 81.2129 41.7735C82.7936 43.2042 84.0532 45.0542 84.9916 47.3235C85.9301 49.5927 86.3994 52.2815 86.3994 55.3895V81.4375ZM105.645 31.1915H94.5308V20.0915H105.645V31.1915ZM105.497 81.4375H94.679V38.5915H105.497V81.4375ZM133.376 81.2155C132.536 81.6102 131.573 81.9307 130.486 82.1775C129.449 82.4242 128.363 82.5475 127.226 82.5475C125.646 82.5475 124.114 82.3255 122.633 81.8815C121.2 81.4867 119.94 80.8207 118.854 79.8835C117.767 78.9462 116.903 77.7375 116.26 76.2575C115.618 74.7282 115.297 72.9027 115.297 70.7815V20.0175H126.189V68.9315C126.189 70.7075 126.535 71.9407 127.226 72.6315C127.967 73.2727 128.832 73.5935 129.82 73.5935C131.054 73.5935 132.24 73.2235 133.376 72.4835V81.2155ZM149.71 31.1915H138.596V20.0915H149.71V31.1915ZM149.562 81.4375H138.744V38.5915H149.562V81.4375ZM190.705 69.4495C190.705 71.5707 190.211 73.4702 189.223 75.1475C188.235 76.7755 186.95 78.1567 185.37 79.2915C183.789 80.3767 182.011 81.1907 180.035 81.7335C178.059 82.3255 176.108 82.6215 174.182 82.6215C170.922 82.6215 167.908 82.0295 165.142 80.8455C162.425 79.6122 160.03 77.6635 157.955 74.9995L164.401 68.4875C165.686 70.1155 167.167 71.3982 168.847 72.3355C170.526 73.2235 172.329 73.6675 174.256 73.6675C175.935 73.6675 177.318 73.3715 178.405 72.7795C179.541 72.1382 180.109 71.2007 180.109 69.9675C180.109 68.6847 179.319 67.6242 177.738 66.7855C176.158 65.8975 173.935 65.0342 171.07 64.1955C169.39 63.7022 167.76 63.0855 166.18 62.3455C164.599 61.5562 163.191 60.6187 161.956 59.5335C160.721 58.3987 159.733 57.1162 158.993 55.6855C158.252 54.2547 157.881 52.6022 157.881 50.7275C157.881 48.6555 158.35 46.8055 159.289 45.1775C160.277 43.5002 161.536 42.1187 163.068 41.0335C164.648 39.8987 166.426 39.0355 168.402 38.4435C170.378 37.8515 172.379 37.5555 174.404 37.5555C180.924 37.5555 186.259 40.0222 190.408 44.9555L184.036 51.3935C182.801 49.8642 181.393 48.6555 179.813 47.7675C178.232 46.8795 176.503 46.4355 174.626 46.4355C173.984 46.4355 173.293 46.5342 172.552 46.7315C171.86 46.8795 171.193 47.1262 170.551 47.4715C169.958 47.7675 169.464 48.1867 169.069 48.7295C168.674 49.2227 168.477 49.7902 168.477 50.4315C168.477 51.5662 169.217 52.5527 170.699 53.3915C172.231 54.2302 174.404 55.0687 177.22 55.9075C179.047 56.4502 180.776 57.1407 182.406 57.9795C184.036 58.8182 185.469 59.8047 186.704 60.9395C187.938 62.0247 188.902 63.2827 189.593 64.7135C190.334 66.0947 190.705 67.6735 190.705 69.4495ZM221.209 80.4755C220.122 81.1662 218.863 81.6842 217.43 82.0295C215.997 82.3747 214.565 82.5475 213.133 82.5475C210.613 82.5475 208.489 82.2267 206.76 81.5855C205.031 80.9935 203.648 80.0562 202.611 78.7735C201.574 77.4907 200.808 75.8627 200.314 73.8895C199.87 71.9162 199.647 69.5975 199.647 66.9335V48.2115H194.016V43.4015C197.474 41.9707 200.265 39.8495 202.389 37.0375C204.562 34.2255 206.044 30.5747 206.835 26.0855H210.317V38.5915H221.135V48.2115H210.317V67.6735C210.317 68.7587 210.44 69.6467 210.687 70.3375C210.984 71.0282 211.354 71.5707 211.799 71.9655C212.243 72.3602 212.737 72.6315 213.281 72.7795C213.873 72.9275 214.491 73.0015 215.133 73.0015C215.973 73.0015 216.985 72.8535 218.171 72.5575C219.356 72.2615 220.369 71.7682 221.209 71.0775V80.4755Z" fill="#15141F"/>
</svg>
